<?xml version="1.0" encoding="utf-8"?>
<!-- Generator: Adobe Illustrator 24.0.1, SVG Export Plug-In . SVG Version: 6.00 Build 0)  -->
<svg version="1.1" id="圖層_1" xmlns="http://www.w3.org/2000/svg" xmlns:xlink="http://www.w3.org/1999/xlink" x="0px" y="0px"
	 viewBox="0 0 530.7 661.4" style="enable-background:new 0 0 530.7 661.4;" xml:space="preserve">
<style type="text/css">
	.st0{fill:none;stroke:#FFFFFF;stroke-miterlimit:10;}
</style>
<title>資產 6</title>
<g id="圖層_2_1_">
	<g id="background">
		<path class="st0" d="M341.7,327.9c9.1,12.4,19.5,23.4,32.2,32.3c6.1,4.3,12.3,8.2,19.3,10.5c6.5,2.1,13.3,3.1,20.2,1.6
			c6.1-1.4,9.6-4.9,9.5-11.5c-0.2-10.4,2.6-20.4,2.8-30.7c0.1-4.3-0.2-8.6-1.1-12.9c-1.2-5.6,0-11.5-1-17.3
			c-0.6-4.4-2.2-8.6-4.7-12.3c-6-8.5-11.8-17.1-18.4-25.1c-3.8-4.7-8.2-9.4-14.6-11c-0.4-0.1-0.9-0.4-1.2-0.3
			c-6.9,2.6-10.5-2.7-14.5-6.4c-2.9-2.7-6.7-3.3-9.9-5.4c-2.7-1.8-5.5-3.4-6.8-6.4c-1.7-4.1-5.2-5.1-8.9-5.7
			c-5.8-0.9-11.8-0.3-17.4,1.5c-6.2,1.9-11.8,2.2-16.9-2.5s-10.5-9.5-15.7-14.2"/>
		<path class="st0" d="M306,459.5c4.2,5.3,9.5,7.1,16.1,5.4c6.3-1.6,13-2,19.1-4.6c6.1-2.6,10.5-8,12-14.5
			c1.7-6.6,5.4-11.1,11.2-13.7c8-3.5,11.9-9,11.6-17.8c0-3.1,0.4-6.1,1.4-9c3.1-10.4-0.1-19-6.8-26.8c-4.4-4.8-7.8-10.4-10.3-16.4
			c-3.8-9.6-11.1-16.6-18.8-23c-5.5-4.6-9.5-10.8-15.5-14.7c-2.6-1.7-4.2-4.9-7.5-5.6"/>
		<path class="st0" d="M158,181.9c-2.7,3.4-7.1,3-10.6,4.3c-7.1,2.5-13.2,7.4-17.1,13.9c-4.2,6.8-9.7,12.5-16.3,17
			c-8.3,5.5-12.9,14.5-18.4,22.6c-2.5,3.7-3.7,7.7-4.7,11.8c-1.7,7-0.1,9.5,6.9,10.2c4,0.4,7.9,0.5,11.9,0.8
			c7.3,0.5,14.4-1.8,21.8-1.5c2.7,0.1,4.2,1.3,6.6,1.9c-5.1,5.4-11.3,6.7-17.8,7.2c-1.7,0.2-3.5,0.5-5.2,0.9"/>
		<path class="st0" d="M197.6,592.2c3.5-2.5,4.4-6.7,5.5-10.3c3.2-10.4,5.6-21,4.6-32c-1.2-13.7-7.5-25.3-16.3-35.3
			c-8.3-9.4-17.5-17.9-26.3-26.9"/>
		<path class="st0" d="M268.6,376.7c-1.8-2.4-5.4-1.2-7.1-4c-2.2-3.5-5.8-5.3-9.3-7.4c-2.2-1.3-1.4-4.2-2.2-6.2
			c-1.2-2.8,0.4-3.9,1.5-5.6c3.2-4.6,6.6-8.8,12.8-9.9c3.5-0.6,3.4-4.8,4-7.4c1.7-7.7,3.1-15.5,0.9-23.6c-1.4-5.4-4.7-10.2-9.3-13.5
			c-5.9-4-10.4-9.7-12.8-16.4c-3.6-9.8-10.4-17.2-22.3-17c-1.5-0.1-2.9-0.3-4.3-0.6"/>
		<path class="st0" d="M53.4,342c-7.9-3.5-15.2-2.8-21.8,3.1c-2.5,2.2-4.3,5.1-2.4,8.2c1.6,2.7,4.8,3.8,8,3.4
			c5-0.6,9.4-2.7,11.6-7.4c3.6-7.4,10.2-9.9,17.4-11.7c0.8-0.2,1.2-0.1,1.6-1c1.5-3.8,4.8-6.1,7.9-8.3c6.7-4.7,8.6-11.5,8.6-18.9
			c0-3.2-2.8-5.7-4.2-8.7c7.6-7.6,16.5-11.8,27-11.9c8.4-0.1,15.6-3.2,22.8-6.9c7.8-4.1,15.6-8.1,24.1-10.5c1.6-0.6,3.4-0.6,5-0.1"
			/>
		<path class="st0" d="M230,144.5c5.9-7.9,12.7-15.1,17.7-23.7c7.5-12.9,8.7-26.6,6.5-40.9c-1.1-7-3.6-13.9-4.4-20.9
			c-0.6-5.4-1.7-10.7-2.1-16.1c-0.1-1.6,0.7-2.5,1-3.8"/>
		<path class="st0" d="M-74.1,573.8c6-5.2,14-6.8,20.4-11.4c6.2-4.3,9.9-9.8,10.4-17.2c0.2-3.3,1.6-5.3,4.4-6.5
			c7.9-3.5,13.9-9.5,20.4-15c3.3-2.8,4.5-7,6.5-10.5c2.4-4.4,4-9.1,4.8-14c1.8-11.4,8.4-21.1,14-30.9c4.2-7.3,7.7-15.2,12.9-21.9
			c1.8-2.4,3.4-4.9,6.4-6.6c3.9-2.4,5-7.5,8.1-10.9c1.4-1.4,2.7-3,3.6-4.8"/>
		<path class="st0" d="M263.4,406.3c0.9,6.6,0.3,13.4-1.8,19.7c-1.8,5.4-1.8,11.2-3.3,16.6c-0.8,3.1-0.4,6.5,1.3,9.3
			c1.8,3.1,3.4,6.3,4.8,9.7c1.4,3.7,5.3,4.8,9.6,4.3c6.6-0.6,12.7-3.4,19.3-3.8c2.5-0.2,4-1.6,3.8-4.4"/>
		<path class="st0" d="M209.2,97.2c-7.9-11.1-18.4-19.9-26.9-30.4c-4.4-5.5-9.1-10.9-11.6-17.4c-4.1-10.9-10.8-21.2-10.5-33.4
			c0.1-5.3-0.3-10.7,0.8-15.9"/>
		<path class="st0" d="M72.4,582.3c1-6-3.4-10.5-4.6-15.9c-1.2-5.1-2.7-10.2-3.1-15.7c-4.1-1.8-8.9-2.5-13.4-4.4
			c-11.9-4.9-21.9-11.8-28.1-23.3c-2.9-5.4-2.3-11.2-1.1-16.8c0.8-3.9,2.8-4,6.8-2.4c8.9,3.5,13.3,11.2,18.2,18.5"/>
		<path class="st0" d="M289.7,15.2c-2.9-4.2,0.6-7.3,1.9-10.7c2.4-6.6,8-10.2,14-13c3.2-1.5,4.4-6,8.8-5.8c2.5,6.6,6.8,12.7,6,20.7
			c-0.4,4.4,1.1,8.9,2.6,13.3c2.7,7.5,3.8,15.3-0.3,22.7c-2.6,4.5-6,8.5-10,11.9c-6.1,5.3-7.6,13.1-4.3,20.9
			c3.1-0.8,4.2-3.5,5.4-5.9c1.6-3.3,3.8-5.9,7.3-7.1c5.2-1.8,7.9-5.6,9-10.8c0.4-2.1,1.1-4.2,1.6-6.3c1.5-6.2,2.9-8.6,11-8.1
			c7.4,0.4,14.5,0.8,20.6,5.6c2.7,2.1,6.6,1.2,8.1-2.8c2.5-6.4,7.8-10.7,11-16.5c2.2-3.8,4.3-7.6,6.4-11.4"/>
		<path class="st0" d="M75,570.4c3.9-5.2,5-11.6,6.5-17.6c1-3.7,2.8-5.9,6.3-6.9c19.9-6,32.9-19.6,41.2-38.1
			c1.7-3.8,2.9-8.3,1.1-12.7c-0.5-1.3-0.4-2.7,0.1-4"/>
		<path class="st0" d="M294.8,200.5c3.4-1.2,6.4,0.1,9.5,1.5c4.9,2.1,10.1,3.7,15.4,4.8c6.4,1.3,11.7-1.8,17.2-4.2
			c7.1-3.1,9.5-10.1,13.4-15.9c1.4-2.1,2.4-4.6,4-6.6s3.2-4,6.4-2.6c1.1,0.3,2.2,0.1,3.2-0.5c4.9-2.6,10.3-1.4,15.4-2.2
			c1.7-0.3,4.4,0.2,5.1,2.1c1.1,2.9,3.3,4.3,5.6,5.8"/>
		<path class="st0" d="M-31.1,430.6c5,0.8,10.2,0.7,15.2,2c1.4,0.5,2.9,0.4,4.2-0.2c6.7-3.5,13.8-2.1,20.9-1.6
			c1.5,0.1,2.7,0.9,4.4,0.3c7.5-2.5,15.2-4.3,21.6-9.4c4-3.2,8-6.4,12.8-8.6c5.3-2.3,9.4-6.5,13.3-10.5c6.5-6.8,14.7-10.9,22.4-15.9
			c2.6-1.7,4.9,0.8,7.5-0.6c4.6-2.4,9.5-4,14.4-5.9c1.8-0.7,3.6-1.8,5.7-1.4c0.5,2.3-1.3,3.4-2.1,5c-0.7,1.4-2.4,2.5-1.6,4.5"/>
		<path class="st0" d="M116.8,378.5c1.9,2.3,0.7,4.9,0.8,7.4c0.5,14,14.5,28.7,28.1,29.4c9.3,0.5,15.8-5.9,15.5-15.8
			c-0.1-3.8,0.9-7.6,2.9-10.9c0.6-1.1,1.8-1.9,2.5-3c6.4-10.8,9.1-13.2,0.1-25.5c-2.4-3.2-4.6-6.6-7.1-9.7c-3.2-4-7.7-6.6-12.8-7.3
			c-1,0-2-0.2-3-0.5c-7.5-3-8.5-4.2-6-13.1c5.7-21,15.8-39,36-49.7c2-1.1,4.3-1.3,6.5-0.6"/>
		<path class="st0" d="M173.9,638.6c1.8-4.6,1.3-9.5,2-14.2c0.8-5.8,1.2-11.6,1.9-17.5c1.1-10,2.1-20.1,3.1-30.1
			c0.2-2.9,1-5.8,2.1-8.4"/>
		<path class="st0" d="M173.5,661.4c0.2-6.3,0.5-12.7,0.8-19.1c0.1-0.7-0.1-1.3-0.4-1.9c-4.1-7.5-3.3-16-4.8-24
			c-1.2-6.5-1.4-13.2-3.9-19.5c-1.4,0.5-2.2,1.8-3.8,1.4c-12.7-22.7-14.5-46.5-6.4-71.3c-3.1-0.6-4.2-1.8-4-4.7
			c0.7-9.1,2.4-18.2,5.1-26.9c0.2-0.7,1.1-1.2,1.7-1.8"/>
		<path class="st0" d="M-6.8,503.4c5.5-14.5,13.8-27.7,21.2-41.2c3.4-6.2,5.7-13.1,10.7-18.4c0.6-0.6,0.5-1.9,0.8-2.9"/>
		<path class="st0" d="M193.7,334.2c-0.4-11.1,0.2-22,2.8-32.9c2.5-9.9,6.7-19.3,12.5-27.7c0.7-1.1,1.6-1.9,1.2-3.3"/>
		<path class="st0" d="M406.7,174.6c3.5,2.2,3.8,6.4,5.3,9.7c0.9,2,2,3.2,4.1,3.6c1.7,0.2,3.2,1.1,4.2,2.5c0.9,1.4,2.7,1.9,4.1,1
			c0.2-0.1,0.4-0.3,0.6-0.4c4.1-5.4,10.8-7.9,14.4-13.8c2.8-4.7,3.7-9.9,3.7-15.2c0.1-11.5-0.1-23-0.3-34.6c0-1.7,0.7-4-1.8-5"/>
		<path class="st0" d="M429.3,185.4c-1.2-3.9,1.6-6.8,3.1-9.4c3.1-5.5,1.8-10.2-1.1-14.6c-4.9-7.4-5.1-11.5,0.2-18.4
			c0.2-0.3,1-0.4,1-0.6c-0.1-6.7,5.3-11,7.2-17c2.7-8.3,0.3-14.4-5.1-20c-1.7-1.8-4.2-2.7-6.7-3.6c-8.9-3.2-17.7-6.8-26.7-9.6
			c-4-1.3-8.6-1.9-12.7,0.7c-2.1,1.4-3.5-0.4-4.6-1.3c-2.5-2-5.3-3.6-8.3-4.6"/>
		<path class="st0" d="M186.2,578.6c-1.1-1.7-0.5-3.7-0.8-5.6c-0.3-1.9-0.3-3.1-1.9-4.6c-3.4-3.1-2-7.8-2.9-11.8
			c-1.7-7.4-1.9-15.4-5.1-22.1c-4.2-9.2-7.9-18.5-11.1-28.1c-0.3-0.8-1-2-0.7-2.4c2.4-3-0.3-5-1.7-6.6c-2.8-3.1-3-6.3-2.8-10.2
			c0.4-8.1-0.5-16.1-1.6-24.1c-1.5-11-5.1-21.5-9-31.8c-0.4-1.1-1.1-2.1-0.5-3.3"/>
		<path class="st0" d="M404.6,228.9c4.4,0,8.2,2,12,3.9c5.8,2.9,7.2,2.5,10.6-2.7c1.1-1.5,2.4-2.7,4-3.5c7.5-4.7,8.5-8.5,6.5-17.1
			c-1.8-7.4-6.3-13.2-11.9-18.2"/>
		<path class="st0" d="M221.1,166c-4-11.1-8.4-22.1-10.4-33.9c-1.3-7.2-1.8-14.6-1.5-21.9c0.3-5.4,0.5-10.7,1.8-16.1
			c1-4.6-1.2-9.9-2.2-14.9c-1.1-5.6-3-11-3.7-16.7c-0.8-5.5-0.7-11,0.5-16.4c1-5.1,2.5-10.1,4.5-15c1.7-3.8,1.6-8.2-0.3-11.8
			c-1.8-3.8-1.6-8.6-2.3-13c-0.2-1.2,0.3-2.6-1.5-3"/>
		<path class="st0" d="M30.4,435.6c2.1,0.3,2.7-1.5,3.8-2.6c15.3-16.9,32.8-31.8,51.9-44.3c0.7-0.4,1.3-1.1,1.4-1.9"/>
		<path class="st0" d="M130.8,490.4c1.5-2,3.2-1.9,5.4-0.2c3.3-5.6,5.6-11.8,6.7-18.2c2.6-13.4,1.1-26.8,0.3-40.2
			c0-0.5-0.6-1-0.9-1.6"/>
		<path class="st0" d="M253.8,566c1.6-3,0.8-6.3,0.4-9.2c-1.1-7.9,0.3-16.2-3.1-23.5c-2.6-5.7-4.8-11.5-6.6-17.5
			c-4.1-12.5-8.2-25-12.1-37.5c-1.6-5.1-4.8-9.6-5.2-15.2"/>
		<path class="st0" d="M15.4,502.6c-3.8-3.8-4.5-7.6-3.4-13.4s1.5-11.8,2.6-17.7c0.4-2.9,2-5.5,4.3-7.3c1.7-1.3,3.1-3,4.1-5
			c9.3-17.4,24.2-25.9,43.3-27.6c3.1-0.3,6.3-0.8,9.4,0.1"/>
		<path class="st0" d="M211.4,170.7c-3.9-3.9-7.2-8.4-12.6-10.4c-0.6-0.2-1.3-1.3-2-0.8c-4,3-5.7-1.1-7.3-2.9
			c-5.2-5.8-10.7-11.1-18-14.2c-9.5-3.9-19-7.6-29.5-7.2"/>
		<path class="st0" d="M166.9,443c6.1,3.9,10.7,9.9,11.6,16.5c1,7.6,4.2,14.1,7,20.7c3,6.8,7.1,13,12.2,18.4
			c5,5.4,11.3,9.1,17.3,13.2c2.2,1.5,3.9,0.3,3.2-2.8c4.7-1.1,7.4,2.2,10.2,4.6c8.8,7.3,15.3,16.5,20.7,26.6
			c0.8,1.5,1.2,3.2,3.2,3.5"/>
		<path class="st0" d="M222.7,131c-1.1-2.7,0.4-4.6,1.6-6.8c2.1-3.4,2.9-7.3,3.7-11.1c1.5-7.1,4.7-13.4,8.6-19.3
			c1-1.5,1.7-5.4,5.5-2.9c0.9,0.6,1.7-1.6,2-2.9c1.9-7.2,1.6-14.4,0.9-21.7c-0.9-7.9-0.9-15.9-0.2-23.8c0.2-1.7,0.3-3.7,2-4.8"/>
		<path class="st0" d="M166.9,505.7c-0.4-1.8,0.6-3.4,0.8-5.2c0.1-0.9,0.8-1.6,0.2-2.6c-5.3-10-4.6-21.3-6.3-32
			c-1.9-11.7-4.7-23.1-8.5-34.3c-0.3-0.9-0.5-1.9-0.6-2.9"/>
		<path class="st0" d="M158.8,348.3c1.4-6.8,4-13.3,4.7-20.3c1.1-10.3,4.5-20,7.7-29.9c2-5.9,4.7-11.5,7.9-16.8
			c3.7-6.4,9.9-9.2,16.6-10.5c7.9-1.6,15.8-3,23.6-5"/>
		<path class="st0" d="M225.6,165.7c-1.1-2.8,0-5.8-0.5-8.8l-2.8,1c-5.2-14.6-10.6-29.1-9.5-45.1c0.4-4.1,0.3-8.2-0.5-12.2"/>
		<path class="st0" d="M271.8,177.8c-0.4-5.2-0.3-10.4,0.3-15.5c0.4-6.1,1.4-12.2,2.9-18.2c3.5-12.8,8-25.3,16.9-35.7
			c3.7-4.4,5.4-9,2.1-14.8c-1.5-2.9-1-6.5,1.2-8.9c2.9-3.2,4.3-7.3,5.7-11.1c1.4-3.7,0.3-7.6-1.6-11.1c-0.8-1.5-1.4-3-0.6-4.7"/>
		<path class="st0" d="M207,93.5c0.3-1,0.3-2.1,0-3.2c-1.2-4.5-2-9.1-3-13.7c-2.6-11.7-7.8-22.3-14.3-32.2c-1.5-2.3-2.9-4.8-6.7-3.6
			c-1.7,0.5-3-1.6-4.1-2.8c-7.5-7.8-13.9-16.4-17.5-26.7"/>
		<path class="st0" d="M20.2,463.6c1,3.2-0.5,6.2-1.5,9c-2.5,7.6-0.4,15,0.3,22.5c0.1,0.8,0.2,2,1.6,2.3s2.2-0.6,3.1-1.5
			c1.7-1.7,2.1-4,3.6-5.9c2.1-2.8,4-3.7,6.6-1"/>
		<path class="st0" d="M-75.7,574.8c-6.9,3.7-17.9,2.6-23.4-2.8c-2.5-2.5-1.1-6,0-8.8c2.7-7,7.4-12.9,12.3-18.3
			c6.8-7.7,18.3-9.1,27.9-4.8c3.6,1.6,7.4,1.4,11.2,0.2c1.7-0.7,3.7-0.4,5.2,0.8"/>
		<path class="st0" d="M46.2,502.8c3.3-1.9,1.9-5.8,3.7-8.5c3.2-4.8,5.5-10.1,6.6-15.7c1.1-5.9,5.7-10.2,10.5-13.9
			c2.8-2.1,5.5-4.3,8.9-5.4"/>
		<path class="st0" d="M45.6,506.2c0.1-0.3,0.3-0.8,0.4-0.8c7-0.1,10.9,5.2,9.2,11.7c-2,7.7-2,15.2,4.4,21.3c0.5,0.6,0.8,1.3,0.9,2
			c0.6,3.4,3,3.5,5.8,3.8c5.1,0.4,10.1,1.3,15.2,2c0.3,0,0.5,0.4,0.7,0.6"/>
		<path class="st0" d="M188.9,199.5c-1.8-3.7-1.1-7.7-1-11.5c0.1-2.9-1-4.4-3-6.2c-8.7-7.5-19-12.6-28.4-19.1
			c-4.8-3.3-8-8.1-12.1-12.1c-1-1-0.8-3.3-1-5.1c-2.3-17.2-11.3-29.5-27.1-36.8c-1.7-0.8-3-2.2-4.6-3.3c-1.3-1-2.4-2.6-4.4-2"/>
		<path class="st0" d="M520.4,52.4c-0.3,5.3-3.5,7.7-9,7.2c-5.2-0.4-9.8-2.9-14.5-4.8c-2.5-1-4.7-0.4-7-0.7
			c-1.6-0.2-2.3,1.2-2.8,2.4c-2.1,4.6-0.5,14.4,3.2,17.8c4.4,3.9,9.9,4.8,13.2-1.1c1.7-2.9,1.2-6.8-2.7-9c-7.1-4.1-13-9.9-21.6-11.8
			c-4.5-1-7,0.4-10.3,1.8c-11,4.7-22.2,9.2-33.8,11.5c-11,2.2-21.9,4.4-31.9,9.6c-1.1,0.6-2.6,0.3-3.3-0.8"/>
		<path class="st0" d="M175.9,639.6c2.4-2.3,2.4-5.7,3.3-8.6c1.9-6,3.4-11.8,7.3-17.1c3.6-4.8,5.4-11.1,8-16.7
			c1.9-3.9,1.5-8.3,2.5-12.4c0.3-1.4,0.7-2.8,1.2-4.2"/>
		<path class="st0" d="M188,183.6c2.3-2.4,5.4-4,8.7-4.6c5.8-1,11.2-3.7,15.5-7.6c7.1-6.4,15.6-6.4,24.2-2.6
			c2.7,1.2,5.5,2.1,8.1,3.4c3.8,2,8.1,1.1,12.1,1.9c5,0.9,9.8,2.6,14.7,3.9c0.6,0.1,1.4,0,1.6,0.8c0.8,3.9,4.3,5.5,6.5,8.3
			c3.5,4.6,8.3,7.9,12.9,11.3c2.5,1.8,4.7,10.7,2.5,12.7c-2.9,2.6-6.9,2.4-10.6,1.9s-7.2-2.4-10.7-3.8c-2.5-1-5.6-0.3-7.2-3.3"/>
		<path class="st0" d="M340.1,307.3c3-14.4,5.5-28.8,1.9-43.4c-0.4-1.6,0.8-2.5,1-3.8"/>
		<path class="st0" d="M288.7,312.3c-0.6-9.3-4.9-17.3-9.4-25.1c-3.4-6.1-7.8-11.5-12.9-16.2c-2.5-2.2-1.3-4.7-1.3-7.1"/>
		<path class="st0" d="M506.2,37.7c5.8,2.9,17.5,1.6,21.7-2.7c2.6-2.6,2.8-6,1.9-9.3c-0.7-2.5-5.8-4.9-8.7-4.4
			c-2.1,0.4-4.2,1-6.2,1.6"/>
		<path class="st0" d="M374.7,247.9c6.4-1.1,12.9-1,19.2,0.4c4.3,0.8,8.1,0.5,11.7-2c7.6-5.3,7.6-5.3,3-13.6
			c-0.4-0.7-1.3-1.4-0.8-2.4"/>
		<path class="st0" d="M408.7,171.3c0.3-5.6-0.6-11,2.1-16.5c3.9-7.8-1.8-15.8-10.6-15.5c-5.1,0.1-9.2-1.7-13.1-4.8
			c-2.1,2.7-0.6,4.9,0.8,6c2.5,1.9,3.5,4.5,4.4,7.1c1.6,4.6,3.7,8.9,7.1,12.6c2.5,2.6,1.7,5.6-0.3,8.4c-2.6,3.7-6.3,6.8-7,11.7"/>
		<path class="st0" d="M-64.4,484.9c0.5,0.4,1,1.2,1.5,1.2c9.6-0.4,19.1,4.3,28.9,1c4.2-1.4,8.4-3.1,12.4-5c3.9-1.7,5.5-5.7,6.2-9.2
			c1.4-7.3,4.1-14.3,8.1-20.7c4.1-6.5,9.5-12.9,17.7-16.1c7.3-2.8,14.4-6.4,22-8.7c0.7-0.4,1.5-0.5,2.3-0.3"/>
		<path class="st0" d="M396.8-9.9c-4.8-7.4-5.4-15.3-2.6-23.5c3.8-11,10.5-18.8,22.1-22.4c4.6-1.5,8.6-5.1,12.8-7.8
			c1.7-1.1,3.3-1.7,5.1-0.5c2.5,1.7,2.8-0.2,3.2-1.9"/>
		<path class="st0" d="M66.6,360.6c-4.9,1-9.7,2.5-14.6,3c-8.2,0.8-16.5,0.9-24.3-2.9c-1-0.5-2.1-0.9-3.3-1.2c-4.3-1-6.4-4.5-8.2-8
			c-1.1-2.1-2.7-2.8-4.5-3.9C7.4,345,3.3,342,1.3,337c-1.5-3.9-0.5-8,2.4-9.7s6.8-0.6,9.6,2.8c2.2,2.6,1.8,5.9,2.7,8.8"/>
		<path class="st0" d="M130,490.2c-3.4-5.6-4.5-12.2-8-17.8c-0.8-1.3-0.5-2.7,0.9-4.2c7.1-8,11.7-17.9,13.2-28.4
			c0.6-4.2,3.1-8.1,5.9-11.5"/>
		<path class="st0" d="M227.6,154.2c4.3-3.4,9-6.2,14.1-8.2c10.4-4.1,16.1-12.6,19.1-22.9c2.6-8.7,4.6-17.7,6.7-26.5
			c0.4-2,0.6-4.1,0.7-6.1"/>
		<path class="st0" d="M179.2,459.9c0.7,0.3,1.4,0.6,2,1c6,5,13.2,4,20,4c6.2,0,12.4-3.1,18.5-2.2c10.8,1.5,25.8-10.2,27.6-21"/>
		<path class="st0" d="M142.4,187c-5.8-7.6-11.8-15.1-14.4-24.7c-1.2-4.6-2.5-9.1-3.4-13.8c-3-14.4-6.7-28.7-15.3-41.2
			c-4.1-6-9.7-10.6-13.9-16.3"/>
		<path class="st0" d="M399.6,73.6c3-4.8,6.1-9.4,8.9-14.4c0.9-1.7,2.1-3.3,3.7-3.4c4.9-0.4,8.6-3.8,13.2-4.9
			c4.3-1,8.8,0.1,13.2-1.9c2.3-1.1,5.1-1.6,6.9-3.4c4.3-4.2,1.4-10.2-2.8-11.4c-5.1-1.6-9.2-1.1-12.8,5c-0.9,1.3-1.9,2.5-3,3.6
			c-2.1,2.2-3.4,5.1-3.7,8.1"/>
		<path class="st0" d="M366.7,348c11.4,8.4,23.3,15.8,37.3,19.2"/>
		<path class="st0" d="M3.1,576.6c3.6-0.4,4-3.8,4.9-6c3.6-8.3,1.4-16.9-5.9-22.4c-5.4-4.1-7.9-10.1-11.8-15.2"/>
		<path class="st0" d="M372,39c3.8,0.1,5-3.5,6.6-5.6c4-5.4,7.6-11,10.6-17c1.8-3.5,2.4-7.7,3.5-11.6"/>
		<path class="st0" d="M66.2,353.3c0.8,4.4,1.4,8.8,0.7,13.2c-0.5,3.2,1.1,4.4,3.8,4.5c8.7,0.5,13.9-0.4,18.7-9.6
			c3.6-6.9,8.1-13.4,16-16.1c2-0.6,3.4-2.4,3.6-4.5c0-3.5,2.1-6.4,1.5-10c-0.4-2.4,1.6-4.4,2.8-6.4c2.9-4.8,4.7-10.4,9.7-13.7"/>
		<path class="st0" d="M358.6,176.2c0.8-5.3,1.4-10.4-1.3-15.7c-1.6-3.3-4.3-5.3-6.3-8.1c-2.6-3.6-4.4-7.3-4.1-11.9
			c0.2-3.7,3-5.2,5.7-6.6c5.2-3,11.3-3.7,17.1-2.1c5.3,1.5,10.7,2.5,16.1,3.6"/>
		<path class="st0" d="M204-10.7c0.3,2.8,0.7,5.7,1.4,8.5c0.9,3.5,0.2,7.3-1.9,10.3c-1.4,2-1.6,4.9-2,7.5c-0.8,5.9-2,11.7-3.5,17.5
			c-1.3,5-0.3,10.1-0.1,15.2c0,1.2,0.9,2.1,2,2.3"/>
		<path class="st0" d="M119.1,367.4c-1.6-0.8-3.1-1-4.4,0.1c-0.4,7.1,4.7,11,9.4,14.4c8.5,6.3,18.3,10.3,28.8,11.8"/>
		<path class="st0" d="M323.9,418.7c1.5-7.9-0.3-15.5-2.4-22.9c-1.7-6.3-4-12.5-6.9-18.4"/>
		<path class="st0" d="M311.1,280.3c7.1-9.2,10.8-20,13-31.2c0.3-1.4,1.1-2.1,1.4-3.2"/>
		<path class="st0" d="M251.3,531.3c2-3.8-0.2-7.6-1.1-10.9c-2.5-9.4-3.8-19.1-6-28.5"/>
		<path class="st0" d="M290.2,353c6-9.9,7.8-20.8,7.5-32.1c0-1,0.3-1.8,0.3-2.6"/>
		<path class="st0" d="M196.6,583.4c-3.3-1.8-1.8-4.7-1.3-7.1c1.6-6.9,2.6-14,3-21.1c0.3-4.9,1.5-11.4-4.1-15.6
			c-1.4-1-1.5-3.8-2.3-5.7c-3.9-9-6.3-19.1-14.8-25.1c-3.8-2.7-6.4-7.6-11.9-7.7"/>
		<path class="st0" d="M144.4,241.2c9.2,3.3,17.8,7.9,25.7,13.6c1.6,1.1,3.4,2,5,3.1"/>
		<path class="st0" d="M241.8,306.9c-1.8-13.6-5.9-26.3-16-36.2"/>
		<path class="st0" d="M10.1,355.8c-4,1.8-8.3,2-12.6,2.2c-4.7,0.2-9.7-5.1-9.3-9.4s4-6.7,9.1-5.8c5,0.9,9.4,4.2,11.6,8.8
			c2.2,4.3,5.6,5.5,9.9,5.5"/>
		<path class="st0" d="M310,273.8c5.2-7,7.9-15.2,10.3-23.4c1.1-4,1.7-8.2,6.8-9"/>
		<path class="st0" d="M251,436.3c3.5-5,2.4-11,4-16.5c1.3-4.8,2.7-9.5,4.2-14.4c-0.5-1.8-2.1-3.1-3.5-4.8c-7.2,2.2-14.1,1-20.5-2.8
			c-4.6-2.7-8.3-6.5-10-11.8"/>
		<path class="st0" d="M239.8,432.6c2.3-9.5,4.5-19,9.6-27.6c0.4-0.9,0.6-1.9,0.8-2.9"/>
		<path class="st0" d="M5.7,383.9c-0.8,0.8-1.6,1.7-2.4,2.5c-4.5,4.1-4.9,7.1-1.4,10.9c3.7,4,7.3,4.1,11.6,0.2
			c1.4-1.3,3.6-2.1,3.8-4.4"/>
		<path class="st0" d="M384.7,50.7c2.5-5.5,3.1-11.6,6.8-16.7c5.2-7.2,11.1-13.8,19-18c6.1-3.3,13-3.1,19.8-2.3
			c1.7,0.2,2.3,1.7,3.4,2.6"/>
		<path class="st0" d="M476.9,50.9c0.5-0.4,1-0.7,1.6-0.9c5.8-1.2,8.1-6.3,11.5-10.1c1.3-1.4,0.7-2.9,0.6-4.3
			c-0.5-7.4,6.5-15.8,13.7-17.2c4-0.8,6.3,1.2,8.4,4"/>
		<path class="st0" d="M130,329.4c1.4-2.1,1.7-4.7,2.2-7.1c1.4-7.9,5.2-14.9,8.3-22.1"/>
		<path class="st0" d="M403.9,174.2c0.4-4.5,0.6-9.1,1.2-13.6c0.4-2.8-0.1-5-2.5-6.4c-1.8-1.1-2.6-3-3.8-4.5s-2.9-2.5-5-1.3"/>
		<path class="st0" d="M123.9,140.7c2-4.6,1.1-9.2,0-13.9c-1.5-6.1-4.2-11.8-7.9-16.8c-0.2-0.3-0.1-0.9-0.1-1.4"/>
		<path class="st0" d="M49.2,324.9c-1.1-3-2.9-5.7-3.7-8.9c-1.2-4.7-8.2-9.4-12.8-9.1c-4.9,0.4-7.2,4.9-5.9,9.6s7.1,9.4,12,8.7
			c8.6-1.1,15.6,2.5,22.7,6c2.2,1.2,4.5,2.2,6.9,3"/>
		<path class="st0" d="M316.1,435.6c2.2-10,1.7-20,1.3-30.1"/>
		<path class="st0" d="M155.4,290.5c6.3-7.5,12.9-14.4,23.2-16.3c1.8-0.5,3.7-0.1,5.2,1"/>
		<path class="st0" d="M466.2,82.7c2.8,4.2,6.9,6.9,11.1,9.4c1.9,1.1,10.2,0.2,11.7-2c1.2-1.8,2.5-3.4,1.6-5.9
			c-1.3-3.7-4-5.5-7.5-6.3c-4.1-0.9-8.4-0.2-12,2.1c-4.8,3.2-9.7,2.5-14.7,2.4c-2.8,0-5.7-0.5-8.5,0.1c-4,0.8-6.9-2.3-10.4-3.1
			c-5.5-1.3-10.8-3.2-16.2-4.9c-0.7-0.3-1.3-0.8-1.9-1.3"/>
		<path class="st0" d="M290.1,281.8c-4.2-1.4-6.9-4.4-9.9-7.6c-3.6-4-8.4-7-13.1-9.6c-3-1.7-4-3.6-4.6-6.7c-1-5.2-2.5-10.5-9.3-10.9
			"/>
		<path class="st0" d="M177.7,326.6c-0.1-9.8,3.1-18.9,5.3-28.2"/>
		<path class="st0" d="M264.8,66.3c1.5,1.8,0.2,4,0.9,6.2c1.5,4.3,4.4,7.3,7,10.5c3.3,4.2,8.5,6.4,13.8,5.9c1.4-0.1,3.9-0.5,3.4,2.5
			"/>
		<path class="st0" d="M222,385.6c0.3-0.1,0.6-0.2,0.9-0.2c3.7,0.9,7.1-1.9,10.6-1.3s5,4.8,8.3,6c1.2,0.5,2.5,0.9,3.7,1.4
			c6.5,2.4,10-1,9.1-7.6c-0.3-2.2-0.3-4.1,1.8-5.9c1.6-1.4,1.7-4.1,3.4-5.8"/>
		<path class="st0" d="M322.5,220.5c9.1,2.6,18.4,3.1,27.8,3.4"/>
		<path class="st0" d="M175.8,269.7c8.1-2,16.2-4.5,24.8-4c1.6,0.1,3.7-0.3,4.4,1.9"/>
		<path class="st0" d="M331,327.9c1.5-0.4,3-0.5,4.5-0.3c5.5,1,10.7-0.8,15.7-2.4c7.8-2.5,9.2-9.4,9-16.4
			c-0.2-8.1-0.5-16.5-2.3-24.1c-2.5-10.8-8.6-20.4-17.3-27.2c-5.6-4.4-12.1-8-16.3-14.1"/>
		<path class="st0" d="M349.3,90.2c-1.5-2,0.5-3.5,0.9-5.1c2-7,3.2-14.2,3.5-21.5"/>
		<path class="st0" d="M259.6,405.3c7.3,0.9,14.1-0.7,20.7-3.8c5-2.3,10.2-4,15.1-6.5s8.3-6.7,11.9-10.6c3.8-4.1,6.8-8.9,9.8-13.6
			c3.9-6,4-12.9,3.5-19.7c-0.5-8.2,0.4-16.2,1.3-24.3c0.3-1.3,0.7-2.5,1.3-3.7"/>
		<path class="st0" d="M495.9,53.9c4.2-4.2,8.5-8.2,15.1-8.3c4.8-0.1,8.9,2.4,8.8,5c0,4,2.4,1,3.4,1.7"/>
		<path class="st0" d="M453.3,91.6c-1.7,4.3-3.3,8.6-2,13.4c1.3,5.1,5.4,8.8,8.9,7.6c4-1.4,6.6-7.5,4.7-11.8
			c-1.6-3.7-4.2-6.8-8.2-8.3c-4.7-1.8-7.6-5.1-9.7-9.4"/>
		<path class="st0" d="M208.2,383.5c1.2-4.6,3-8.5,8.3-10.1c4.2-1.3,4.2-5,3.7-8.8c-0.8-7.2,1.6-9.6,8.6-9.5"/>
		<path class="st0" d="M259.9,270.1c-4.8-2.5-7.6-6.2-6.4-11.9c0.8-3.6-0.5-7-0.6-10.4c0-1.7-1.3-2.7-2.7-3.4
			c-5.8-2.8-9.2-7.7-12.4-13c-2.8-4.6-5.7-9.3-11.1-11.2c-7-2.5-6.6-8.7-7-14c-0.2-2.9,3.7-4.6,6.8-4.9c9.1-0.6,18.3,0.4,27,3
			c3.1,0.9,6.6,2.5,10.1,0.9"/>
		<path class="st0" d="M334.4,137c6.2-1.8,11.6-5.4,16.6-9.4c3.8-3,6.1-7.3,5-12.5c-0.3-2.1-0.2-4.2,0.3-6.2
			c1.2-5.6,0.2-10.1-5.3-13.1c-1.2-0.6-1.9-2.2-2.8-3.3"/>
		<path class="st0" d="M188.6,411.7c3.6-7.1,8.5-13.7,10.8-21.5c0.2-0.6,1.1-0.9,1.6-1.4"/>
		<path class="st0" d="M241.4,401.2c-3.2,3.6-7.7,4.7-11.9,6.5c-1.4,0.7-3.1,0.5-4.4-0.4c-3.9-3.7-8.9-4.7-13.7-6.5
			c-6.5-2.4-9.1-7.4-9.5-14c-0.3-4-1.8-4.8-5.5-3.2c-0.2,0.1-0.4,0.2-0.5,0.3c-11.4,4.9-13.4,1.8-14.7-8.7
			c-0.7-6.2-1.8-11.4-6.1-16.5c-4.2-5.2-6.7-11.5-7.2-18.1c-0.3-3.4-2-4.6-4.6-5.6"/>
		<path class="st0" d="M107.6,234.7c8,1.2,16,2.9,23.8,5.1"/>
		<path class="st0" d="M382.2,235.9c9.3-3.6,15.4-11.1,21.6-18.4c1.5-1.9,2.8-4,3.8-6.2c3.5-7.4,10.6-12,14.3-19.2"/>
		<path class="st0" d="M225.2,149.5c-0.6-5.7-1.7-11.3-3.3-16.7c3.7-1.1,3.5-4.4,4.4-7.2"/>
		<path class="st0" d="M1.8,578.1c-1.1,2.3-3.2,4.1-5.7,4.8c-5.3,1.3-10.4,3.3-15.2,6.1c-2.5-3.8-4.7-7.2-7-10.7
			c-1.6-2.3-1.9-5-2-7.7c-0.4-6.9-2.7-14,1.5-20.7c2.4-3.5,5.5-6.5,9.1-8.8c2.7-1.9,5-3.4,5.1-7.3c0-2.2,2.8-3.7,3.3-6.3
			c1.1-6.3,1.5-12.6,1.1-19"/>
		<path class="st0" d="M87.6,386c0.7-2.5,3.3-2.7,5-3.6c7.1-3.4,14.4-6.4,21.6-9.5"/>
		<path class="st0" d="M389,81.8c5.8-0.6,11.6-1.8,17.1-3.7c5.1-1.7,10.4-2.8,15.8-0.6c0.7,0.2,1.4,0.1,1.9-0.4"/>
		<path class="st0" d="M263.8,27.5c-3.2,2.6-3.1,6.7-2.2,9.6c1.8,5.6,2.5,11.3,3.9,16.9c0.8,3.4,0.2,7.1,0.1,10.7
			c0,0.9-0.6,1.2-1.2,1.4c-9.7-4.6-10.2-14.7-13.5-23.1c-0.2-0.6-0.3-2-0.5-2.2c-5.4-6.8-0.9-12.3,2.3-17.9"/>
		<path class="st0" d="M304.6,13.1c1.6-8.3,6.7-14.8,11.6-21.3"/>
		<path class="st0" d="M178.9,407.5c3.8-5.9,8-11.5,11.3-17.7c0.7-1.3,0.3-2.4,0.7-3.4"/>
		<path class="st0" d="M75.5,438c0-8.1,4.5-14.1,9.9-19.4c4.8-4.8,11.2-7.8,16.1-12.6"/>
		<path class="st0" d="M419.2,123.9c-1.4-9.8-7.1-16.9-14.4-22.9"/>
		<path class="st0" d="M315.3,342.2c2.3-7.8,3.4-15.7,2-24.5c-2,1.2-1.7,2.7-2.2,3.8"/>
		<path class="st0" d="M248.2,202.3c3-7.1,4.5-14.7,6.4-22.1"/>
		<path class="st0" d="M359.7,297c7.3,2.3,14.8,3.1,22.3,3.8"/>
		<path class="st0" d="M122.2,442.5c0.4-3.4,2.7-5.5,5-7.8c3-2.9,5.8-5.8,10.2-6.3c1,0,2,0.1,3,0.3"/>
		<path class="st0" d="M153.7,171.9c-0.4,2.3,0.9,4.3,1.7,6.2c1.9,4.5,5.2,5.5,9.8,3.4c7-3.2,12.5-1,15.5,6.1c1.2,2.9,3,5.2,6,6.4"
			/>
		<path class="st0" d="M388.7,93.8c6.6,3.7,13.9,5.3,21.1,7.1"/>
		<path class="st0" d="M116.7,368.2c5.8,5.5,12.1,10.3,19.5,13.4"/>
		<path class="st0" d="M244,490.9c-2.9-6.5-2-13.5-2-20.2c0-5.2-0.5-10.1-3.7-14.3"/>
		<path class="st0" d="M301.4,333.4c0.8-7.4,0.8-14.9,0.2-22.3"/>
		<path class="st0" d="M387.9,55.9c5.7,1.1,11.5,1.1,17.1-0.1c1.1-0.2,3.2-0.6,4.1,1.3"/>
		<path class="st0" d="M305.4,209.9l20.2,5.1"/>
		<path class="st0" d="M383,89.7c9.7-9.8,7-21.3,3.5-36.2c4-0.1,4.9-3.3,6.2-6.1"/>
		<path class="st0" d="M130.3,428c-3.8-5.7-6.5-11.6-6.6-18.6c-0.1-1.4,0.4-2.8,1.5-3.7"/>
		<path class="st0" d="M72.5,574.7c1.3-0.2,2.2-1.4,2.1-2.7c0-0.1,0-0.2-0.1-0.3c-2-7.1,0-14,0.4-21"/>
		<path class="st0" d="M366.7,43.9c1.3,4.4,4.2,6.1,9.1,6.4c3.6,0.2,7.5-0.2,10.5,2.5"/>
		<path class="st0" d="M233.7,260.5c1.5-4.2,4.5-7.4,7.9-10.1c2.5-2,4.7-4,5.8-7.1"/>
		<path class="st0" d="M185.2,421.6c4.6-5.4,9.1-10.9,11.6-17.7"/>
		<path class="st0" d="M228.2,425.2c0.8-6.1,4-11.2,6.1-16.8c0.2-0.7,0.2-1.5,0-2.3"/>
		<path class="st0" d="M45.8,504.4c-5.2-6-5.6-13.1-5.1-20.5"/>
		<path class="st0" d="M132.2,333.1c-7.8-5.9-9.5-14.4-8.2-23.1c0.6-4,3.6-8,6.3-11.3s6-6.5,8.5-10.4c3-4.7,8.3-7.1,12.7-10.3
			c2.8-2.1,6.1-3.4,8.5-6.3c1.8-2.2,4.9-3.3,7.9-4c4.7-1,9.3-2.4,13.9-3.6"/>
		<path class="st0" d="M203.2,303.4c0.9-6.6,2.2-13.2,4-19.6"/>
		<path class="st0" d="M347.1,376.2c-2.8-8.3-7.2-15.7-12.2-22.8"/>
		<path class="st0" d="M341.2,371.1c-3.1-8.2-7.9-15.3-13.3-22.1"/>
		<path class="st0" d="M338,347.9c-5.3-4.8-10.1-10.4-16.7-13.6"/>
		<path class="st0" d="M267.1,230.8c5.8-5.7,12.7-10,20.2-12.8"/>
		<path class="st0" d="M343.8,90.6c3.1-5.7,4.8-12,5.1-18.4"/>
		<path class="st0" d="M380.6,317.4c5.7,3,11.8,5.1,18.1,6.3"/>
		<path class="st0" d="M127.5,324.8c2.3-6,3.4-12.4,6.8-18"/>
		<path class="st0" d="M297.5,430.9c1.8-5.4,2.2-11.1,3.3-16.6c0.2-1,0.1-1.6-0.9-2"/>
		<path class="st0" d="M272.7,208.4c0.2-6.4,0.4-12.7,0.8-19.1c0-1.8,0.6-3.5,1.6-4.9"/>
		<path class="st0" d="M-22.3,451.1c0.2-2.5,2.8-3,3.9-4.8c2.4-3.9,3.8-8.3,4.1-12.9"/>
		<path class="st0" d="M306.1,67.7c-1.8-0.6-1.5-2-1.4-3.5c0.2-3.5-1.9-5.4-5-6.7c-7.6-3.2-14.1-7.6-16.6-16.2
			c-0.4-1.1-0.5-2.2-0.5-3.3c0.7-8.5,3.1-16.5,5.7-24.5"/>
		<path class="st0" d="M184.7,255.8c3.7,4.8,3.8,4.9,9,3.1c3.5-1.2,7-0.3,10.4-0.4c4.1,0,7.8-1.5,11.7-2.1c1.1-0.1,2-0.7,2.6-1.6
			c3.3-5.5,6.8-10.8,8.3-17.2"/>
		<path class="st0" d="M23.5,384.2c1.5-1.1,3.3-2,4.4-3.4c5.4-7.1,12.8-12.5,21.3-15.2c0.3-0.1,0.5-0.7,0.8-1.1"/>
		<path class="st0" d="M267.8,424.4c1.4-6.2,1.9-12.5,1.6-18.9"/>
		<path class="st0" d="M389.2,358.1c5.6,2.4,11.2,5,17.3,6.1"/>
		<path class="st0" d="M316.4,317.9c-3.1-4.4-5.4-9.5-10.5-11.9c-3.4-1.7-7.1-2.8-10.4-4.9c-8.5-5.4-9.5-14.8-2.1-22"/>
		<path class="st0" d="M325.6,397.7c-1.3-7.3-4.2-14-7.4-20.7"/>
		<path class="st0" d="M265.1,204.7c1.5-5.9,3.1-11.7,8-15.9"/>
		<path class="st0" d="M11.9,498.6c-1.2,1.9-1,3.6-0.2,5.8c1.8,4.8,4.1,8.8,9.1,10.7"/>
		<path class="st0" d="M333.9,89c3.9,1,8.1,1.3,11.6,3.8c1.3,0.9,6.8-2.7,6.9-4.5c0.3-6.1,3.5-11.8,3.2-18"/>
		<path class="st0" d="M292.3,341c2-5.9,1.8-12.1,2.7-18.1"/>
		<path class="st0" d="M235.8,384.1c3.2-3.8,7.4-2.5,11.3-2c2.4,0.3,4.7,0.6,6.9-0.6"/>
		<path class="st0" d="M404.9-8.3c-6.6,2-8.1,8.4-11.2,14.1c-2.3-3.6-0.3-6.4,0.6-8.6c3.1-7.6,3.4-7.5,11.5-5.6
			c6.1,1.4,11.6-1,16.4-3.8c3.3-1.9,7.8-3,9.7-7.2"/>
		<path class="st0" d="M434.3,133.4c-4.8-4.2-11.1-4.6-16.6-6.9"/>
		<path class="st0" d="M114.3,441.9c-0.1-0.9-0.5-2.1-0.1-2.7c4.2-7.1,2.8-14.1,0.5-21.5c-2.1-6.7-6.4-11-12.2-14.2"/>
		<path class="st0" d="M231.2,356.1c5.9,3,11.8,2,17.8,0.4"/>
		<path class="st0" d="M190.6,589.5c0.8-6,0.3-11.9,0-17.9"/>
		<path class="st0" d="M181.9,316.9c1.9-7.6,3.4-15.3,6.5-22.5"/>
		<path class="st0" d="M485.5,46.9c7,0.4,12.6-2.9,17.4-7.4c3.2-2.9,7.5-4.4,9.9-8.2c0.2-0.3,1.4,0,2.1,0.1"/>
		<path class="st0" d="M97.8,316.4c7.3-2.4,13.6-6.8,20.4-10.1"/>
		<path class="st0" d="M128.8,269.6c2.6,2.4,5.8,2,9,1.8c2.7-0.2,5.5,0,7.5,2.3"/>
		<path class="st0" d="M72.7,438.2l2.8,0.2c-0.9,6,3,11.7,1.2,17.8c-0.7,2.5-0.1,4.3,1.5,6.3c3.2,4,7,1.3,9.7,0.3
			c5.9-2.2,11.4-5.6,17.1-8.5c1.2-0.6,2.1-1.6,2.6-2.9c0.8-1.7,2.4-2.8,4.2-3"/>
		<path class="st0" d="M297.3,421c2.5-8.9,4-17.8,1.4-27"/>
		<path class="st0" d="M375.9,237.9c3.5,2.3,7.8,1,11.5,2.4c1.6,0.5,3.3,1,5,1.3"/>
		<path class="st0" d="M244.4,201.4c2.3-5.2,3.1-10.9,4.5-16.3"/>
		<path class="st0" d="M222.6,190.1c1.1-5.7,0.1-11.4-0.2-17.1"/>
		<path class="st0" d="M123.1,362.2c4.6,3.9,8.9,8.1,14.3,10.8"/>
		<path class="st0" d="M188.3,580.8c0.3-5.5-0.2-11-1.3-16.4"/>
		<path class="st0" d="M133.9,165.2c0-5.3,1.8-10.3,3-15.4"/>
		<path class="st0" d="M392.8,131.1c2.4-1.3,4.9-0.9,7.3-0.4c5.2,1.1,10.5,2.2,15.8,3.1c2,0.3,3.8,1.7,5.6,2.6
			c1.5,0.8,1.9,2.4,0.9,3.3c-3.9,3.4-1.8,6.9,0,9.8c1.7,2.6,1.1,4.2,0.2,6.9c-1.6,5-4.2,9.9-3.5,15.7c0.5,4.3-2.5,7.6-6,10.1"/>
		<path class="st0" d="M109.1,232.4c5.4-0.4,10.2,2,15.4,3"/>
		<path class="st0" d="M116.4,342.6c4,4.9,7.4,10.2,12.6,13.9"/>
		<path class="st0" d="M103.5,410.1c-3.8-6.3-1.3-16.7,4.8-21.2c1.6-1.4,2.9-3,3.9-4.8c1.6-2.4,3-4.9,4.6-7.4"/>
		<path class="st0" d="M225.9,370c1.3-4.8,0.4-10,3.3-14.4c3.4,0.8-0.1,2.5,0.3,3.7"/>
		<path class="st0" d="M230.8,250.3l10.8-12.5"/>
		<path class="st0" d="M67.8,352.3l-2,0.9c-3.4-5.2,0.9-10.1,0.6-15.1"/>
		<path class="st0" d="M304.2,197.1l15.4-0.6"/>
		<path class="st0" d="M128.7,146.9c0.3-5,0.7-10,1.1-14.9"/>
		<path class="st0" d="M402.7,314.9c4.2,1.1,8.4,0.3,12.5-0.1c0.9,0,1.8,0.1,2.6,0.3"/>
		<path class="st0" d="M171.8,310.8c0.6-5,3.4-9.3,4.4-14.1"/>
		<path class="st0" d="M405.7,215.3l13.3,6"/>
		<path class="st0" d="M276.5,209.4c4.8-3.7,10.7-6.1,14.4-11.2"/>
		<path class="st0" d="M226.8,150.4c2-2,2.3-3.9,1.5-6.9c-0.9-3.3-0.3-7,0.6-10.5c0.4-1.6,1.2-3.2,0.3-4.8"/>
		<path class="st0" d="M361.2,239.1c1.4-1.1,3.1-1,4.7-1c4.1-0.1,8.2,0.1,12-1.5c3.6-1.5,6.7,0.8,10,1.2"/>
		<path class="st0" d="M211.8,256.8l-2.8-15.5"/>
		<path class="st0" d="M290.1,453.3c2.7-4.1,2.9-8.8,3.4-13.5"/>
		<path class="st0" d="M173.8,588.8c-0.8-5-1.7-10-2.5-15"/>
		<path class="st0" d="M159.9,587.2c-1.3-5-3.1-9.9-3.4-15.2"/>
		<path class="st0" d="M172.3,594.8c-1.1-5.1-2.2-10.1-3.4-15.2"/>
		<path class="st0" d="M144.8,382.9c4,2.9,9.1,2,13.5,3.4"/>
		<path class="st0" d="M264.5,362.6c1.1-4.5,3.6-8.6,4.2-13.3"/>
		<path class="st0" d="M270,233.3c3.5-4.5,8.2-7.7,12.6-11.2"/>
		<path class="st0" d="M147.2,230.3c-3.4-3.1-7.4-5.5-11.6-7.4"/>
		<path class="st0" d="M301.6,87.6c3.1-3.6,6-7.3,6.6-12.2"/>
		<path class="st0" d="M238.3,218.6c4.8-2.9,10-5.1,15.5-6.4"/>
		<path class="st0" d="M241.3,416c2.1-4,3.6-8.3,4.5-12.8"/>
		<path class="st0" d="M-57.3,553.4c-0.3-2.1,2.4-2.1,2.8-3.7c-3.6-1.5-7.5-1.1-11.2-2"/>
		<path class="st0" d="M322.9,222.4c4.1,1.3,8.6,1.6,12.5,3.6"/>
		<path class="st0" d="M136.3,470.3c1.4-4.2,1.3-8.6,1.9-13"/>
		<path class="st0" d="M231,245.9c2.6-3.7,5-7.6,7-11.7"/>
		<path class="st0" d="M176.1,583.2c-0.9-4.7-1.8-9.4-2.7-14.1"/>
		<path class="st0" d="M158,566.1c-0.4-4.6-1.7-9-1-13.7"/>
		<path class="st0" d="M209.6,485c-3.8-3.3-7.4-6.9-10.7-10.8"/>
		<path class="st0" d="M301.2,205.3l12.4,4"/>
		<path class="st0" d="M164.9,534.7c-0.1-4.7-0.7-9.3-1.9-13.9"/>
		<path class="st0" d="M277.6,52.9c1.6-3.9,0.8-8.7,4.3-11.9"/>
		<path class="st0" d="M203.6,244.4c-2.2-2.6-3.9-5.6-5-8.8c-2.6-8-8.5-14.3-11.4-22.1"/>
		<path class="st0" d="M-45.5,432.8c4.2-2.7,8.8-2.5,13.5-2"/>
		<path class="st0" d="M205.6,490.3c-3.5-3.5-6.8-7.3-9.7-11.4"/>
		<path class="st0" d="M364.8,78.4c0.1-4.3,1.9-8.2,2.6-12.3"/>
		<path class="st0" d="M118.1,462.6c-0.7-0.3-1.6,0-2-0.9c-1.9-3.8-5.2-6.2-8.6-8.4"/>
		<path class="st0" d="M199.6,382.2c1.6-2.6,3.9-4.8,6.6-6.3c1.5-0.9,3.5-0.7,4.7,0.6"/>
		<path class="st0" d="M290.1,67.3c1.3-4,1.5-8.3,3.5-12.1"/>
		<path class="st0" d="M194.3,396.1c1.4-2.8,1.9-5.9,3.8-8.5c0.6-0.8,0.4-2.3,0.5-3.4"/>
		<path class="st0" d="M157.3,300.9c2.5-4.1,6.3-6.9,9.7-10.1"/>
		<path class="st0" d="M230,239.4l5-11.3"/>
		<path class="st0" d="M207.3,487.1c-3.6-3.3-6.9-6.8-9.9-10.5"/>
		<path class="st0" d="M-30.2,450.5c-4.3,0.3-8.5-0.3-12.8,1.8c-2.2,1.1-2.2,2.9-3.6,4.1c-5.4,4.3-11.4,7.8-17.7,10.6
			c-4.5,2-6.1,5.8-6.9,10c-0.9,5.1,2.8,7.6,7.9,5.6"/>
		<path class="st0" d="M159.1,508.2c0.2-4.1-0.8-8.3,1.7-12.1"/>
		<path class="st0" d="M115.3,366.5c-4.1-5.9-5.9-12.5-6.3-19.5c-0.1-0.5-0.3-1-0.5-1.5"/>
		<path class="st0" d="M172.8,457c-4.9-4.7-6-11.1-7.7-17.2c-0.2-0.9,0.5-2.3,1.2-3.2c3-4.2,3.6-9.3,5.2-13.9"/>
		<path class="st0" d="M153.1,228.2l10.7,7.2"/>
		<path class="st0" d="M280,154.3c2.1-3.9,5.1-7.2,8-10.5"/>
		<path class="st0" d="M-15.2,456.5c-3.4,1.8-6.5,0-9.7-0.6c-1.7-0.3-3.4-0.8-5.1-1.3"/>
		<path class="st0" d="M429.4-20.5c2.2,0.7,3.5,0.8,5.2-1.8c2.5-3.8,4.4-7.5,4.5-11.9c0.2-6.6,3.9-12.6,3.5-19.3
			c-0.2-3.2,0.8-6.7-2.5-9.3c-0.9-0.8-2.1-1.2-3.3-1.2"/>
		<path class="st0" d="M437.1,32.9c-0.5-5.3,0.5-10.4,1.5-15.6c-4-1.8-5.9,0.2-6.9,3.5c-0.5,1.7-1.4,3.4-2.6,4.7"/>
		<path class="st0" d="M226.7,499.2l-9-10.3"/>
		<path class="st0" d="M153.2,270.7c-1.9-2.7-6.8-4.1-10-3"/>
		<path class="st0" d="M289.2,264.1l6.1-10.1"/>
		<path class="st0" d="M491.1,38.9c2.8,0.8,5.5-0.5,8.2-0.6c1.2-0.1,2.5-1,3.5,0.4"/>
		<path class="st0" d="M362.5,85.9c4.2,0.7,8.6-0.8,12.9,1.1c0.5-1.9,2.3-2.9,2.4-4.9"/>
		<path class="st0" d="M273.7,393.6c3.5-3.2,8.7-4.3,11.2-8.9"/>
		<path class="st0" d="M169.8,597.7c0.3-2.7-0.7-5.2-1.7-7.6c-0.9-2.1-1.8-4.2-1-6.5"/>
		<path class="st0" d="M115.7,447.2c0.6,2.3,1,4.7,3.4,5.8c5.4-1.8,6-2.5,6.1-8.3"/>
		<path class="st0" d="M321.3,91.2l11.8-2.4"/>
		<path class="st0" d="M224,366.9c1.1-3.5,1.2-7.2,1.4-10.9"/>
		<path class="st0" d="M227.3,503.9l-8.4-9.3"/>
		<path class="st0" d="M390.5,181.5c3.3-1.3,6.5-2.6,9-5.3c1-1,2.8-1.4,4.4-1.6c4-0.6,8.8-4.3,10.1-8.3"/>
		<path class="st0" d="M183,591.2c-1,2.7,0,5.6-1.1,8.2c-0.2,0.8,0.3,1.6,1.1,1.8c0.2,0,0.4,0,0.6,0"/>
		<path class="st0" d="M274.6,50.4c1.4,2.4,4.3,3.7,4.7,7.2c3.7-3.1,2.4-7.6,4.6-10.7"/>
		<path class="st0" d="M235,267.5c3-3.5,6.8-4.1,11.2-3.5c2.4,0.2,4.8,0.2,7.2,0.1"/>
		<path class="st0" d="M347.1,279.5c0.1-3.8-0.5-7.6-1.7-11.2"/>
		<path class="st0" d="M289.2,235.4c3.4-3.1,7.7-4.7,11.9-6.4"/>
		<path class="st0" d="M-28.6,451.3c3.6-0.9,6.9,1.3,10.4,1.3c2.2,0,4.9-0.9,6.2,2"/>
		<path class="st0" d="M70.3,562.1l-0.4-10.8"/>
		<path class="st0" d="M399.5-13.7c1.3,0.2,1.3-1,1.9-1.8c1.3-1.8,2.8-3.4,4.4-4.9c4.9-5.1,11.5-8.6,15.3-14.5c2-3,3.4-6.4,4.2-10"
			/>
		<path class="st0" d="M280.7,58.2c0.4,0.9,1,1.7,1.6,0.4c1.3-2.8,2.4-5.7,3.5-8.5"/>
		<path class="st0" d="M157.7,173.9c-1.1-1.5-2.9-2.4-4.7-2.4c-5,0.2-6.6-3.4-7.6-7c-1.1-3.9-2.4-8-0.6-12.2"/>
		<path class="st0" d="M252.4,410.7c0.9-2.9,1.8-5.8,2.6-8.7c1.3-4.5,4.3-8.2,8.4-10.4c0-2.9-0.9-4.9-4.3-4.3"/>
		<path class="st0" d="M161.5,350.3c1.7-3.1,3.1-6.4,5.8-8.9"/>
		<path class="st0" d="M390.1,140.2c3.5-0.8,6,2.3,9.2,2.7"/>
		<path class="st0" d="M272.9,43.2l2.3-9.3"/>
		<path class="st0" d="M416.6,73.4c4-2.1,8.8-2.5,12.5-5.4"/>
		<path class="st0" d="M220.2,396.3c1.6-2.9,3.2-5.8,4.9-8.6"/>
		<path class="st0" d="M398.7,48.4c5.5-2.8,10.7-0.4,15.9,0.8"/>
		<path class="st0" d="M144.8,136.1l9,3.6"/>
		<path class="st0" d="M269.7,55.9c3.1,0.5,6.1,2.1,9.4,1.9"/>
		<path class="st0" d="M160.2,428.8c1.2,3.5,1.8,7.4,4.6,10.1"/>
		<path class="st0" d="M227.6,417c0-3.3,3.5-5.6,2.7-9.2"/>
		<path class="st0" d="M200.5,278.6c0.2-1.9,1.7-2.9,2.8-4.3c0.9-1.1,2.3-2.2,1.5-4.1"/>
		<path class="st0" d="M409.2,131.6c2.9-2.9,7.2-3.7,9.8-6.9c0.7-0.9,1.8-0.5,2.7-0.2l6.7,1.7"/>
		<path class="st0" d="M121.5,468.8c-3.9-4.8-3.7-10.4-3.2-16"/>
		<path class="st0" d="M322.8,242.5c-2-2.1-4.1-4-5.6-6.7c-1.1-1.9-1.7-3.5-1.2-5.6"/>
		<path class="st0" d="M265.8,69.7l9,1.8"/>
		<path class="st0" d="M305.4,54.5c2.8-2.4,5.3-5.3,8.9-6.7"/>
		<path class="st0" d="M210.5,388.5c1-3.1,3.2-5.5,4.8-8.2"/>
		<path class="st0" d="M125.5,295.6c3.9-1,6.4-4.9,10.6-4.9"/>
		<path class="st0" d="M319.8,91.7c3.2-3,1.4-6.9,1.7-10.3"/>
		<path class="st0" d="M202.1,39.9c-1.2,5.3-2.5,10.6-0.5,16.1c0.6,1.7,0.9,3.3,2.6,4.2"/>
		<path class="st0" d="M31.9,504.6c4.1-4.6,5.5-9.6,1.8-15l5.8-4.6"/>
		<path class="st0" d="M319.7,224.2c2.8,0.9,5.8,0.9,8.3,2.5"/>
		<path class="st0" d="M353.2,88.9c2.5-1.1,5-2.1,7.5-3c0.8-0.2,1.3,0,1.6-1c1.4-5.1,5.4-8.9,6.6-14"/>
		<path class="st0" d="M229.4,498.9c-2-3-5.2-5.2-5.8-9.1"/>
		<path class="st0" d="M268.5,30.1c-1-1.8-3.8-2.7-3.1-5.2c0.5-2-1.2-4.7,1-5.9c2.6-1.3,5.3,0.1,7.6,1.4c2.1,1,3.9,2.5,5.2,4.3
			c1,1.4,2.6,2.3,4.3,2.5"/>
		<path class="st0" d="M296,102.8c3.4-1,5.8-4.2,9.6-4.3"/>
		<path class="st0" d="M18.3,392.8c0.5-0.8,1.3-1.5,1.4-2.3c0.2-2.1,3.6-4,1.8-5.6s-4.8-2-7.5-1.6c-2.1,0.3-4.3-1.7-6.3,0.1"/>
		<path class="st0" d="M256.1,271c-1.9-2.5-5.7-3-7-6.2"/>
		<path class="st0" d="M390,78c3.9,0.6,6.3-3,9.8-3.4"/>
		<path class="st0" d="M317.2,248.7c0.8-2.8,1.1-5.8,3-8.2"/>
		<path class="st0" d="M-44.9,475c3.1-0.6,6.1-1.7,8.9-3.2"/>
		<path class="st0" d="M416.8,201.5c3.3,1.9,7.5,1.6,10.6,4"/>
		<path class="st0" d="M177,515.4c-2.2-2.4-3.7-5.4-4.1-8.6"/>
		<path class="st0" d="M197.2,558c-2.9-2.3-1.4-6-2.7-8.8"/>
		<path class="st0" d="M299.9,35.3l1-11"/>
		<path class="st0" d="M136.9,455.6c3.2-2.4,2.1-6.4,3.7-9.4"/>
		<path class="st0" d="M183.7,615.6c-1.6-2.9,0.4-5.6,0.7-8.3"/>
		<path class="st0" d="M15.1,348.1c0.4-2.7,2.1-5.3,1.2-8.2"/>
		<path class="st0" d="M359.1,288.7l8,0.2"/>
		<path class="st0" d="M359.3,291.5c2.6,0.6,5.1,1.5,7.8,1.1"/>
		<path class="st0" d="M129.5,290.3c3.1-0.5,5-4.4,8.8-2.7"/>
		<path class="st0" d="M173.7,369.5l4-7"/>
		<path class="st0" d="M143.4,427.7c2-2.1,4.5-0.4,6.3,0c6.3,1.3,12.7,0,18.9,1.4"/>
		<path class="st0" d="M256.8,262.7c-1.4-2.5,0.3-5.1-0.3-7.7"/>
		<path class="st0" d="M303.7,59.5c1.9-5.1-0.1-9.8-1.3-14.6c-0.6-2.6-0.5-5.3-1.9-7.8c-0.6-1.2-1.7-1.1-2.3-1.8"/>
		<path class="st0" d="M83.9,458l14.6-15.2"/>
		<path class="st0" d="M261.9,387.1c1.1-5.1,5.2-8.1,8.3-11.8c0.5-0.6,1.2-0.1,1.8,0"/>
		<path class="st0" d="M428.1,27.5c0-3.2,0.5-6.4,1.5-9.5"/>
		<path class="st0" d="M-23.8,433.7c2.2,1,4.7,3.5,6.1-1"/>
		<path class="st0" d="M291.6,72.1c0.3,1.4-1.8,2.2-1,3.8c3.6-1.4,3.6-1.4,4.4-6.5"/>
		<path class="st0" d="M-58.9,463c-5.4-5.9-5.2-10.8,0.6-18.6"/>
		<path class="st0" d="M-66.9,477.1c5,1,10.1,2.1,15-0.7c0.7-0.4,2,0.1,3,0.2"/>
		<path class="st0" d="M243.5,97.7l3-6.4"/>
		<path class="st0" d="M222.1,388.8c0.6-4.9-4.3-5.5-6.5-8.3c-0.9-1.2-2.5-1.9-3.7-2.8"/>
		<path class="st0" d="M179.3,391.5c1.2-2.1,1.9-4.5,3.8-6.2"/>
		<path class="st0" d="M295.7,404.1c0.2-2.4-0.5-4.7-0.9-7"/>
		<path class="st0" d="M199.8,399.3c0.6-2.1,0.7-4.4,2.4-6.1"/>
		<path class="st0" d="M125.8,397.8l8.2,3"/>
		<path class="st0" d="M279.8,76.3l10.8,1.8"/>
		<path class="st0" d="M215.1,255.9l1.6-6.3"/>
		<path class="st0" d="M300.9,211.9c2.5-0.6,4.2,1.1,6.2,2"/>
		<path class="st0" d="M419.5,174.5l6.4,1.2"/>
		<path class="st0" d="M-28.6,442.4l1.9-1.8c-1.6-2.3-3.2-1.3-5-0.4c-1.9,1-3.6,2.7-6,2.5"/>
		<path class="st0" d="M286.4,193.1c3.2-2,6.7-1.8,10.2-1.5"/>
		<path class="st0" d="M279.1,54.2c2.2-1.5,1.5-4.1,2.4-6.1"/>
		<path class="st0" d="M422.6,158.7c2.2,0.3,4.2,1.5,6.4,1.2"/>
		<path class="st0" d="M170.8,364.7c1.8-1.6,2.5-3.8,3.7-5.8"/>
		<path class="st0" d="M-43.6,452.1c0.6-2-0.6-4.2,0.9-6.3c-1.8,0.2-3.3,0.6-4.7-0.1"/>
		<path class="st0" d="M248.2,84.5c0.4-2,0.7-4,1.1-6"/>
		<path class="st0" d="M143.4,141.6l5.9,1.5"/>
		<path class="st0" d="M-54.6,445.7l-3.4-0.9c2.4-8.3,8.9-12.3,16-10.3"/>
		<path class="st0" d="M142.3,341l0.2-6.2"/>
		<path class="st0" d="M-9.9,560.8c1.8-3.7-1.3-5.7-2.8-8.3"/>
		<path class="st0" d="M311.2,390.5c-0.3-2.3-1.2-4.5-2.4-6.4"/>
		<path class="st0" d="M423,139.1l5.5,1.4"/>
		<path class="st0" d="M66,550.7c3.7,0,7.5,0.8,10.9-0.9c2-1,2.9,0.6,4.4,0.7"/>
		<path class="st0" d="M391.2,51.9c3.7-1.3,7.5-2,11.3-0.3"/>
		<path class="st0" d="M289,73.7c-1.2-5.2-4.4-9.3-7.4-13.5"/>
		<path class="st0" d="M238.1,264.2c-5.7-4.8-12.6-6.7-19.6-8.5"/>
		<path class="st0" d="M100.7,440.7c2.4-2.9,2.4-6.6,3.4-9.9"/>
		<path class="st0" d="M171.2,284.6c1.5-1.9,3.4-2.7,5.8-1.7"/>
		<path class="st0" d="M189.8,70.9c-0.1-2.5-3.4-3.4-3-6.1"/>
		<path class="st0" d="M254.9,114.9c0.6-1.8,0.6-3.8,1.8-5.4c2.3,1.2,0.2,2.8,0.3,4.1"/>
		<path class="st0" d="M404.3,217.2c1.6,1.2,3.6,1.2,5.4,1.8"/>
		<path class="st0" d="M167.3,532.6c-0.9-3.5,1.5-7.6-1.8-10.7"/>
		<path class="st0" d="M109.7,358.4c-5.7,1.6-10.9-0.3-15.9-2.6"/>
		<path class="st0" d="M242.5,407.3l1.4-5.5"/>
		<path class="st0" d="M326.2,352.1c-1.7-1.4-2.1-4.1-4.7-4.3"/>
		<path class="st0" d="M298.4,207.7c2-0.4,3.7,0.6,5.6,1"/>
		<path class="st0" d="M186.7,63.7c-1.4-2.1-2.8-4.3-4.2-6.4"/>
		<path class="st0" d="M412.4-13.1c1.6,0.6,3.5,0.4,5,1.7"/>
		<path class="st0" d="M-13.6,571.9c2.8-2.1,2.7-5.6,3.9-8.4"/>
		<path class="st0" d="M426.2-45.1c1.7-2.8,2.9-5.8,3.6-8.9c0.7-3.6,4.2-5.6,5.3-9"/>
		<path class="st0" d="M252.1,202.9l1.7-5"/>
		<path class="st0" d="M419.5,44.2h5.4"/>
		<path class="st0" d="M128,397.9c-0.6-2-2.6-2.7-3.9-4.1"/>
		<path class="st0" d="M298.6,22.9c1,0.7,1.8,2.3,3.4,0.8c-0.7-4,0.2-7.4,3.8-9.7c1.2-0.8,1.1-2.2,2.1-3.1"/>
		<path class="st0" d="M47.3,520c2.9-1.6,4-5.6,7.8-6.1"/>
		<path class="st0" d="M335.1,259.5c0.5-1.7-1.2-3.9,1.3-5.1"/>
		<path class="st0" d="M-68.5,558.7c-0.5-1.4,1.1-4.8-2.8-3"/>
		<path class="st0" d="M139.1,419.9c0.7-1.6,2.1-2.9,2.1-4.9"/>
		<path class="st0" d="M194.7,594.6c-2.1-0.9-2.4-2.5-1.6-4.4"/>
		<path class="st0" d="M214.2,263.2c1.7,0.6,3.7-1.1,5.2,0.8"/>
		<path class="st0" d="M136.2,324.2c-2.1,2.6-2.3,6-3.4,9c-0.6,1.7,1,3.7,3.2,4.4"/>
		<path class="st0" d="M418.4,177.3l5.1,1.3"/>
		<path class="st0" d="M399.4,135c-2.5-1.4-5.5-0.6-7.9-2.7c-0.8-0.7-2.9,0.6-4,2"/>
		<path class="st0" d="M293.2,305.4c0.6-1.7-1.3-3.6,0.4-5.3"/>
		<path class="st0" d="M185.4,607c-2.5-2.2-0.6-4.9-0.8-7.4"/>
		<path class="st0" d="M279.4,31.5c0.6-1.6,1.1-3.3,1.7-4.9"/>
		<path class="st0" d="M326,342.2c-1.7-0.9-2.3-3.2-4.5-3.4"/>
		<path class="st0" d="M269.3,36.1c0.5-1.7-0.5-3.1-0.6-4.6c-0.1-0.7,0.4-1.4,1.1-1.5c0.1,0,0.1,0,0.2,0"/>
		<path class="st0" d="M325.2,345.6c-1.6-0.6-1.9-3.2-4.2-2.8"/>
		<path class="st0" d="M181.6,518.3c1.2,1.2,2.1,2.9,4.2,2.8"/>
		<path class="st0" d="M144.1,144.4l4.6,1.2"/>
		<path class="st0" d="M185.7,391.3c0-1.6,1.9-2.8,1.2-4.6"/>
		<path class="st0" d="M414.1,203.1l4.6,1.2"/>
		<path class="st0" d="M127.9,125.1c0.2-3.2-2.8-5.1-3.4-8"/>
		<path class="st0" d="M-15.2,521c2.4,0.4,2.7-2.3,4.3-3"/>
		<path class="st0" d="M228.2,493.3c-0.5-0.6-0.8-1.4-1.4-1.6c-3.2-1.5-4.8-4.4-6.2-7.4"/>
		<path class="st0" d="M142.7,419.9c0.5-1.5,1-3,1.6-4.5"/>
		<path class="st0" d="M416.3,180.4l4.6,1.2"/>
		<path class="st0" d="M113.8,338.4c-0.8-1.5-0.5-3.9-3-4.3"/>
		<path class="st0" d="M427.3,148.7c-1.5-0.5-2.8-1.8-4.6-1.2"/>
		<path class="st0" d="M356.9,86.7l1.1-4.2"/>
		<path class="st0" d="M256.8,109.1c1.2-1.1,0.9-2.8,1.5-4.1"/>
		<path class="st0" d="M123.9,487.7c0.8-1.3-0.4-3.2,1.5-4.1"/>
		<path class="st0" d="M240.5,243.9l3.2-3.7"/>
		<path class="st0" d="M406.1,45.7c6.7-2.6,11.8-7.5,17.3-11.8c0.8-0.6,0.6-1.4,0.9-2"/>
		<path class="st0" d="M135.3,436.9c-0.6-1.5,0.5-2.9,0.6-4.3"/>
		<path class="st0" d="M360.9,313.9l3.9,2.3"/>
		<path class="st0" d="M357.1,118.1c1.5,0.3,3-0.6,4.4,0.2"/>
		<path class="st0" d="M258.7,110.5c1.6-0.6,2.6-2.1,2.7-3.8"/>
		<path class="st0" d="M207.2,273.1c0.5-1.4,1-2.7,1.5-4.1"/>
		<path class="st0" d="M290.2,192.2c1.1,1.2,2.8,0.9,4.1,1.5"/>
		<path class="st0" d="M224.2,394.7c0.1-1.7,1.4-2.7,2.3-3.9"/>
		<path class="st0" d="M293.9,80.8l-0.9,2c-2.5-1.6-2.4-3.8-1.6-6.2"/>
		<path class="st0" d="M259.5,108.9c-0.6-1.6,0.5-2.9,0.6-4.3"/>
		<path class="st0" d="M308.5,221c1.2-2.1,2.7-0.3,4.1-0.3"/>
		<path class="st0" d="M268.8,48.5c1.5-0.1,2.7,1.9,4.3,0.6"/>
		<path class="st0" d="M370.2,174.7c0.4-2.2,2.3-2.4,3.9-3.1"/>
		<path class="st0" d="M392,143.4c1.5-0.6,2.9,0.5,4.3,0.6"/>
		<path class="st0" d="M183.3,389.8c0.2-1.4,0.8-2.6,1.8-3.6"/>
		<path class="st0" d="M414.9,128.5l3.7,1.4"/>
		<path class="st0" d="M273.6,47.5c1.1-3.1-2.7-4-2.8-6.5"/>
		<path class="st0" d="M193.4,258.4c-0.7-1.5-1.3-3-2-4.5"/>
		<path class="st0" d="M227,412.4l1-3.8"/>
		<path class="st0" d="M422.9,41.4l3.8,1"/>
		<path class="st0" d="M220.6,376.8c0.1-1.3,1.3-2.6,0.1-4"/>
		<path class="st0" d="M223.6,411.5c0.5-1.2,0.9-2.5,1.4-3.7"/>
		<path class="st0" d="M422,161.2l3.8,1"/>
		<path class="st0" d="M183.4,566.7c1.2-1,1-2.4,1.4-3.7"/>
		<path class="st0" d="M-54.1,458.4l1-3.9c-2.8,0-2.7,2.5-4,3.6"/>
		<path class="st0" d="M144.3,147.2l3.8,0.9"/>
		<path class="st0" d="M142.9,138.3l3.9,0.5"/>
		<path class="st0" d="M139,339.7c0.4-1.2,0.9-2.5,1.4-3.7"/>
		<path class="st0" d="M119.9,374.9c-1.1-0.8-1.9-2.1-3.5-2.2"/>
		<path class="st0" d="M338.3,261.1l1-3.8"/>
		<path class="st0" d="M125.9,320.8c1.1-0.8,0.8-2.2,1.3-3.3"/>
		<path class="st0" d="M512.9,30.4c1.7-2.4,2.2-4.9,0.5-7.5"/>
		<path class="st0" d="M489.6,68c-1.1-2.2,0.2-4.1,0.6-6.1"/>
		<path class="st0" d="M333.3,250.5c0.9-1.1,2.2-1.9,3.7-2.2"/>
		<path class="st0" d="M417.3,199.4l3.4,0.8"/>
		<path class="st0" d="M266.5,43.5l-3.1-2.1"/>
		<path class="st0" d="M-31.5,439.4c-0.8-1.1-2.2-0.8-3.3-1.3"/>
		<path class="st0" d="M274.2,161.3c1.9,0.1,1.6-1.6,2-2.6"/>
		<path class="st0" d="M303.9,308.9l0.4-3.5"/>
		<path class="st0" d="M273.8,159c1.1-0.8,0.8-2.2,1.3-3.3"/>
		<path class="st0" d="M261.1,379.7l3.5,0.4"/>
		<path class="st0" d="M350.7,329.6c-0.8-1-2.4-1.4-1.9-3.2"/>
		<path class="st0" d="M408-20.9l6,1"/>
		<path class="st0" d="M253.3,396.6l3.4,0.8"/>
		<path class="st0" d="M107.1,329.5c0.8-1.7,2.1-0.7,3.3-0.5"/>
		<path class="st0" d="M349.2,228.1c0.5-1.8,1.7-1.4,3-1"/>
		<path class="st0" d="M186,606.3c1.1-0.8,0.8-2.2,1.3-3.3"/>
		<path class="st0" d="M135.3,463.7c0-1.2,1.1-2.2,0.4-3.5"/>
		<path class="st0" d="M184.3,598.7c-0.6-1.2,0.4-2.3,0.4-3.5"/>
		<path class="st0" d="M421,163.2c0.8,1.1,2.2,0.8,3.3,1.3"/>
		<path class="st0" d="M-32.6,465.5c2-0.5,4.2,0.9,6-0.7"/>
		<path class="st0" d="M411.4,105.2c1.2-0.6,2.3,0.4,3.5,0.4"/>
		<path class="st0" d="M222.8,361.2c0-1.2,1-2.2,0.4-3.5"/>
		<path class="st0" d="M289.9,75.3l-3.4-0.9"/>
		<path class="st0" d="M270.1,47c1.6,0.5,3.6,0.3,3.8,2.7"/>
		<path class="st0" d="M264.4,46.5l3,0.7"/>
		<path class="st0" d="M356.6,100.5l3,0.3"/>
		<path class="st0" d="M423.5,137.4c1-1.1,2.1-0.3,3.2-0.1"/>
		<path class="st0" d="M-72.3,555.9l-5-1.3"/>
		<path class="st0" d="M397.5,133.6c1-1.1,2.1-0.3,3.2-0.1"/>
		<path class="st0" d="M240.8,99.7c0.4-1,0.2-2.3,1.6-2.7"/>
		<path class="st0" d="M295,58.6c0.1-1,0.2-2,0.3-3"/>
		<path class="st0" d="M242.3,101c0-1.2,1-2.2,0.4-3.5"/>
		<path class="st0" d="M125.5,299.2l3.1,0.3"/>
		<path class="st0" d="M104.7,417.6l-0.8-5.6"/>
		<path class="st0" d="M-26.5,439.3c1.8-0.8,3.8-1,5.2-2.7"/>
		<path class="st0" d="M-13.7,547.3c-1.6-2.7,1.9-5.5-0.2-8.1"/>
		<path class="st0" d="M399.2-10.6c0.6-1.9-1-3-1.6-4.4"/>
		<path class="st0" d="M-30.1,448.3c0.1,2.3,0.7,4.3,3.2,5.3"/>
		<path class="st0" d="M-13.7,554.5l1.1-4.2"/>
	</g>
</g>
</svg>
